<svg xmlns="http://www.w3.org/2000/svg" viewBox="0 0 32 32">
  <!-- Round background with a soft creamy/beige color and a delicate celeste border -->
  <circle cx="16" cy="16" r="15" fill="#F7F4F0" stroke="#74b2b2" stroke-width="1.5" />
  <!-- Elegant, custom vector path representing a classic serif capital C -->
  <path d="M22 10.5 C21 9.8 19.2 9.2 17.2 9.2 C12.8 9.2 10 12.2 10 16 C10 19.8 12.8 22.8 17.2 22.8 C19.2 22.8 21 22.2 22 21.5 L22.2 22.5 L23 22.5 L23 18.5 L22.2 18.5 C21.7 19.5 20.8 20.5 19.2 21 C18.2 21.3 17.2 21 16.2 20 C15.2 19 14.2 17.5 14.2 16 C14.2 14.5 15.2 13 16.2 12 C17.2 11 18.2 10.7 19.2 11 C20.8 11.5 21.7 12.5 22.2 13.5 L23 13.5 L23 9.5 L22.2 9.5 Z" fill="#74b2b2" />
</svg>
